<?xml version="1.0" encoding="utf-8"?>
<!-- Generator: Adobe Illustrator 25.0.0, SVG Export Plug-In . SVG Version: 6.00 Build 0)  -->
<svg version="1.1" id="Livello_1" xmlns="http://www.w3.org/2000/svg" xmlns:xlink="http://www.w3.org/1999/xlink" x="0px" y="0px"
	 viewBox="0 0 270 140" style="enable-background:new 0 0 270 140;" xml:space="preserve">
<style type="text/css">
	.st0{fill:#FFFFFF;}
</style>
<path class="st0" d="M185,35.9L185,35.9c-0.1-0.6-0.3-1-0.8-1.4c-3.3-2.6-7.1-5-11.1-7c-3.9-1.9-8-3.6-12.4-5
	c-8.3-2.6-17.2-3.9-25.8-3.9c-8.6,0-17.6,1.4-25.9,4c-4.3,1.3-8.5,3-12.3,5c-4,2-7.7,4.4-11,6.9c-0.5,0.4-0.7,0.7-0.8,1.4
	c-0.4,3-0.6,6.2-0.6,9.4c0,0.5,0,1,0,1.5c0,0.7,0.1,1.5,0.1,2.2c0.2,4.3,0.9,8.8,1.9,13.2c1.9,8.5,5.2,16.9,9.5,24.3
	c4.3,7.4,10,14.5,16.4,20.5c3.3,3.1,6.8,5.8,10.5,8.2c3.8,2.5,7.6,4.5,11.5,6.1c0.3,0.1,0.6,0.2,0.8,0.2c0.3,0,0.5-0.1,0.8-0.2
	c3.9-1.6,7.8-3.6,11.6-6.1c3.6-2.4,7.1-5.1,10.5-8.2c6.4-5.9,12-12.9,16.3-20.3c4.3-7.4,7.6-15.9,9.5-24.4c1-4.4,1.6-8.8,1.9-13.1
	C185.8,44.4,185.6,40,185,35.9z M97.9,85.3c-8-13.9-12.8-32.1-10.6-48.6c0-0.3,0.1-0.4,0.3-0.5c5.6-4.3,12.1-7.7,18.9-10.1l0,4.8
	c0,0,0,2.2,0,2.9c0,0.5,0,0.9-0.1,1.3c-0.1,0.6-0.2,1.3-0.6,1.8c-0.1,0.1-0.1,0.2-0.2,0.3c-0.1,0.1-0.3,0.3-0.4,0.4v13.9
	c0,0-3.5,0-5.3,0c-0.1,0-0.3,0-0.4,0.3c-2.7,7.8-2.7,16.2,0,24c0.1,0.2,0.3,0.3,0.4,0.3l5.3,0v13.9c0,0,0.1,0.1,0.2,0.2
	c0.1,0.1,0.2,0.2,0.3,0.3c0.3,0.3,0.4,0.7,0.6,1.2c0,0.2,0.1,0.3,0.1,0.5c0,0.3,0,0.7,0.1,1c0,0.2,0,0.5,0,0.7c0,0.2,0,3.2,0,3.8
	C103.3,93.6,100.4,89.6,97.9,85.3z M168.1,52.7c0.1,0,0.2,0,0.3,0.2c1.3,4,2,8.5,1.6,13.5c-0.2,2.9-0.8,5.5-1.6,7.8
	c-0.1,0.2-0.2,0.2-0.3,0.2c-10.9,0-55,0-66.1,0c-0.1,0-0.2,0-0.3-0.2c-1-3.2-1.6-6.5-1.7-9.9c0-0.5,0-1,0-1.5
	c0.1-3.3,0.6-6.7,1.7-9.9c0.1-0.2,0.2-0.2,0.3-0.2C113,52.7,157,52.7,168.1,52.7z M172.1,85.3c-8,13.9-21.4,27.1-36.8,33.5
	c-0.3,0.1-0.4,0.1-0.6,0c-10.2-4.2-19.4-11.4-26.7-19.6V75.9c0,0,50.5,0,62.1,0c0.1,0,0.3,0,0.4-0.3c2.7-7.8,2.7-16.2,0-24
	c-0.1-0.2-0.3-0.3-0.4-0.3c-11.8,0-62.1,0-62.1,0V25.5c8.7-2.9,17.8-4.5,27-4.5c16,0,34.2,4.9,47.4,15.1c0.2,0.2,0.3,0.3,0.3,0.5
	C184.9,53,180.2,71.2,172.1,85.3z M115.5,68.1h-1.7l5.1-9h1.1l5,9h-3.3l0.4-0.4c0.1-0.1,0.1-0.3,0-0.4l-3.5-6.2l-3.5,6.2
	c-0.1,0.1-0.1,0.3,0,0.4L115.5,68.1z M155.3,68.1h-1.7l5.1-9h1.1l5,9h-3.3l0.4-0.4c0.1-0.1,0.1-0.3,0-0.4l-3.5-6.2l-3.5,6.2
	c-0.1,0.1-0.1,0.3,0,0.4L155.3,68.1z M112.8,68.1h-7.6v-9h2.8l-0.6,0.7c-0.1,0.1-0.1,0.2-0.1,0.4v7.2h4.5c0.1,0,0.3,0,0.4-0.1
	l0.7-0.5L112.8,68.1z M149.6,59.7l-0.5-0.6h2.7v8c0,0.1,0,0.3,0.1,0.4l0.5,0.7h-2.8v-8C149.7,60,149.6,59.8,149.6,59.7z M127.4,68.1
	H126v-9h0.8l8.7,6.4v-5.4c0-0.1,0-0.3-0.1-0.4l-0.5-0.6h1.4v9h-0.8l-8.7-6.4v5.4c0,0.1,0,0.3,0.1,0.4L127.4,68.1z M137.6,63.6
	c0-5.1,6.7-5.9,10-3.1v0.8c-2.6-2.4-7.9-2-7.9,2.3c0,4.3,5.3,4.7,7.9,2.3v0.8C144.3,69.5,137.6,68.7,137.6,63.6z M104.4,88.8
	c-5.8-7.1-9-15.9-9-25.2s3.2-18.1,9-25.2v2.1c-4.8,6.4-7.7,14.4-7.7,23s2.9,16.6,7.7,23V88.8z M174.6,63.6c0,10.6-4.1,20.5-11.6,28
	c-7.5,7.5-17.4,11.6-28,11.6c-9.8,0-19-3.5-26.2-9.9v-1.8c6.8,6.4,16.1,10.4,26.2,10.4c21.1,0,38.3-17.1,38.3-38.3
	S156.1,25.3,135,25.3c-10.1,0-19.4,3.9-26.2,10.4v-1.8C116,27.5,125.2,24,135,24c10.6,0,20.5,4.1,28,11.6
	C170.5,43.1,174.6,53,174.6,63.6z"/>
</svg>
