<?xml version="1.0" encoding="utf-8"?>
<!-- Generator: Adobe Illustrator 23.0.4, SVG Export Plug-In . SVG Version: 6.00 Build 0)  -->
<svg version="1.1" id="Livello_1" xmlns="http://www.w3.org/2000/svg" xmlns:xlink="http://www.w3.org/1999/xlink" x="0px" y="0px"
	 viewBox="0 0 270 140" style="enable-background:new 0 0 270 140;" xml:space="preserve">
<style type="text/css">
	.st0{fill:#FFFFFF;}
</style>
<path class="st0" d="M100.6,58.2l5,4.8l1.5-1.6l-1.9-1.8l3.1-3.4l-1.2-1.2l-3.1,3.4l-1.4-1.4l4.5-4.8l-1.2-1.2l-6.2,6.7
	C100,57.9,100.3,58,100.6,58.2L100.6,58.2z M111.6,48.1L111.6,48.1l0.1,8l1.9-1.1v-1.6l4.5-2.6l1.3,0.9l1.9-1.1l-7.5-4.8l-2.7,1.5
	C111.4,47.5,111.6,47.8,111.6,48.1z M116.5,49.9l-2.9,1.7l-0.1-3.7L116.5,49.9z M130.6,48.5h2.1v-2.2h3.6l1.6,2.2h2.4l-1.8-2.4
	l0.2-0.1c0.9-0.5,1.5-1.5,1.4-2.6c0.1-1.6-1.1-2.9-2.6-3c-0.1,0-0.2,0-0.4,0h-6.5h-0.4c0.2,0.3,0.3,0.6,0.4,0.9L130.6,48.5z
	 M136.8,42.2L136.8,42.2c0.6,0,1.1,0.5,1.1,1.1c0,0,0,0.1,0,0.1c0.1,0.6-0.4,1.1-1,1.2c-0.1,0-0.1,0-0.2,0h-4.1v-2.4L136.8,42.2z
	 M179.3,79c-0.5-2.8-2.3-4.8-4.4-4.8c-0.2,0-0.4,0-0.6,0.1c-2.4,0.4-3.7,3-3.2,6.1c0.5,2.9,2.2,4.8,4.4,4.8c0.2,0,0.4,0,0.6-0.1
	C178.5,84.7,179.8,82.1,179.3,79z M175.7,82.9c-0.1,0-0.3,0-0.4,0c-1.2,0-2.2-1.1-2.5-2.8c-0.3-2,0.4-3.4,1.8-3.6c0.1,0,0.3,0,0.4,0
	c1.2,0,2.2,1.1,2.5,2.8C177.9,81.2,177.2,82.7,175.7,82.9z M160.6,51.8l-0.8,6.1l0.1,0.1l5.8-1.4l-3.2,4.3l1.6,1.5l4.9-6.4l-1.8-1.7
	l-5.1,1.1l0.6-5.3l-1.9-1.8l0,0l-0.2-0.2c0,0.4-0.1,0.7-0.4,1l-5,4.9l1.6,1.5L160.6,51.8z M147.8,51.1c0.8,0.3,1.6,0.4,2.4,0.4l0,0
	c1.8,0.1,3.4-0.9,4.1-2.6c0.4-1.2,0.2-2.4-0.5-3.5c-0.8-1.1-1.9-1.9-3.2-2.3c-0.8-0.3-1.6-0.4-2.4-0.4c-1.8-0.2-3.5,0.9-4.1,2.6
	C143.3,47.6,144.8,50,147.8,51.1z M146.1,46c0.3-1,1.3-1.6,2.3-1.5c0.5,0,1,0.1,1.5,0.3c1.8,0.7,2.7,2,2.2,3.4
	c-0.3,1-1.3,1.6-2.3,1.5c-0.5,0-1-0.1-1.5-0.3C146.5,48.7,145.6,47.4,146.1,46z M135,35c-27.6,0-50,22.4-50,50s22.4,50,50,50
	s50-22.4,50-50S162.6,35,135,35z M135,133c-26.5,0-48-21.5-48-48s21.5-48,48-48s48,21.5,48,48S161.5,133,135,133z M90.7,80.1
	C90.8,80,91,80,91.1,80c0.2,0,0.4,0,0.5,0.1l0,0L98,85l0.3-2.1l-1.3-1l0.8-5.1l1.5-0.5l0.3-2.1L91.2,77L90.7,80.1z M96,77.4
	l-0.5,3.3l-2.9-2.2L96,77.4z M135.3,68.6l0.1-0.1l0,0l-0.1-0.1c-1.4-1-2.4-2.5-3-4.1c-0.3-0.7-0.7-1.4-1.2-2
	c-0.4-0.5-1.1-0.8-1.7-0.8c-0.3,0-0.7,0-1,0.1h-0.2l0.1,0.2c0.2,0.5,0.6,0.9,1.1,1.1c0,0,0.1,0,0.1,0h0.3c0.6,0.4,0.9,3,0.9,4.3
	c0,0.2-0.1,0.3-0.3,0.3c-0.2,0-0.5-0.1-0.6-0.3c-0.4-0.4-0.9-0.6-1.4-0.6c-1-0.1-1.9,0.7-2,1.7v0.2c0.1,1,1,1.8,2,1.7
	c0.5,0,1.1-0.2,1.4-0.6c0.2-0.2,0.4-0.3,0.6-0.3c0.2,0,0.3,0.1,0.3,0.3c0,1.3-0.3,3.9-0.9,4.3h-0.4c-0.5,0.2-0.9,0.6-1.1,1.1
	l-0.1,0.2h0.2c0.3,0.1,0.7,0.1,1,0.1c0.7,0,1.3-0.3,1.7-0.8c0.6-0.6,1-1.3,1.2-2C132.9,71,134,69.6,135.3,68.6L135.3,68.6z
	 M134.1,57.6c0.5,0,0.9-0.4,0.9-0.9s-0.4-0.9-0.9-0.9s-0.9,0.4-0.9,0.9v0C133.2,57.1,133.6,57.5,134.1,57.6L134.1,57.6z M133.8,59.8
	h7.9c0.3,0,0.6-0.3,0.6-0.6c0-0.3-0.3-0.6-0.6-0.6h-7.9c-0.3,0-0.6,0.3-0.6,0.6C133.2,59.6,133.5,59.8,133.8,59.8z M135,51.4
	c-18.5,0-33.6,15.1-33.5,33.6s15.1,33.6,33.6,33.5c18.5,0,33.5-15,33.5-33.6C168.6,66.5,153.6,51.4,135,51.4
	C135,51.4,135,51.4,135,51.4z M113.8,108.7c-5.8-5.2-9.5-12.2-10.4-19.9h10.4V108.7z M113.8,81h-10.4c1-7.6,4.6-14.6,10.4-19.7V81z
	 M145.3,115.2c-7.7,2.6-16.2,2.2-23.6-1.3V88.8h9c-0.9-2.6-0.6-5.4,0.6-7.8h-9.6V56.1c9.2-4.2,19.9-3.9,28.7,1l0,0
	c1.1,0.7,1.4,2.1,0.7,3.2c-0.4,0.7-1.2,1.1-2,1.1h-4c-0.8-0.1-1.5,0.2-2.1,0.7c-1.1,1-0.7,2.1-3,2.1h-6.3c0.8,1.5,1.9,2.8,3.3,3.7
	h7.7c0.3,0,0.6,0.2,0.7,0.5c0,0.1,0,0.2,0.1,0.3c0,0,0,0.1,0,0.1c-0.1,0.4-0.4,0.6-0.7,0.6H137c-1.6,0.9-2.7,2.3-3.3,4h14.1
	c0.9-0.1,1.7,0.6,1.8,1.5s-0.6,1.7-1.5,1.8c-0.1,0-0.2,0-0.3,0h-7.1c-4.9,0-8.9,4-8.9,8.9s4,8.9,8.9,8.9h8.9c0.4,0,0.7,0.3,0.7,0.7
	c0,0.4-0.3,0.7-0.7,0.7c0,0,0,0,0,0h-9.1c-3.6,0-6.5,2.9-6.5,6.5s2.9,6.5,6.5,6.5h3.5c1.8,0,3.2,1.4,3.2,3.2
	C147.1,113.4,146.4,114.6,145.3,115.2L145.3,115.2z M158.9,63.8L158.9,63.8c11.7,13.2,10.5,33.3-2.7,45c-2.4,2.1-5.1,3.9-8.1,5.2
	l-0.1,0.1l0,0h0.1c2.7-1.3,3.8-4.5,2.5-7.1c-0.9-1.9-2.8-3.1-4.8-3.1h-5.6c-0.4,0-0.7-0.3-0.7-0.7c0-0.4,0.3-0.7,0.7-0.7h9.5
	c4.5-0.2,8-3.9,7.8-8.4c-0.1-4.3-3.6-7.7-7.8-7.8h-9.2c-0.4,0-0.7-0.3-0.7-0.7c0-0.4,0.3-0.7,0.7-0.7h7c7.4,0.1,13.5-5.9,13.5-13.3
	c0-2.7-0.8-5.3-2.3-7.6v0l0,0C158.7,63.9,158.8,63.9,158.9,63.8C158.8,63.8,158.8,63.8,158.9,63.8C158.9,63.9,158.8,63.8,158.9,63.8
	L158.9,63.8z M137.8,57.5c0.5,0,0.9-0.4,0.9-0.9s-0.4-0.9-0.9-0.9s-0.9,0.4-0.9,0.9v0C136.9,57.1,137.3,57.5,137.8,57.5L137.8,57.5z
	 M168.2,65.9l1.3-0.7l2.1,4.1l1.5-0.8l-2.1-4.1l1.2-0.7l3.1,5.9l1.5-0.8l-4.2-8.1c-0.1,0.3-0.4,0.6-0.7,0.8l-6.1,3.3l4.2,8.1
	l1.4-0.8L168.2,65.9z M102.6,64.1l-2.7,5.4l-5.6-2.9l-1.2,2.3c0.1,0,0.3,0,0.4,0c0.2,0,0.4,0,0.6,0.1l6.2,3.2l3.7-7.3L102.6,64.1z
	 M141.4,57.5c0.5,0,0.9-0.4,0.9-0.9c0-0.5-0.4-0.9-0.9-0.9c0,0,0,0,0,0c-0.5,0-0.9,0.4-0.9,0.9C140.5,57.1,140.9,57.5,141.4,57.5
	C141.4,57.5,141.4,57.5,141.4,57.5z"/>
</svg>
