<?xml version="1.0" encoding="utf-8"?>
<!-- Generator: Adobe Illustrator 25.0.0, SVG Export Plug-In . SVG Version: 6.00 Build 0)  -->
<svg version="1.1" xmlns="http://www.w3.org/2000/svg" xmlns:xlink="http://www.w3.org/1999/xlink" x="0px" y="0px"
	 viewBox="0 0 270 140" style="enable-background:new 0 0 270 140;" xml:space="preserve">
<style type="text/css">
	.st0{display:none;}
	.st1{display:inline;fill:#F70B0B;}
	.st2{fill:#FFFFFF;}
</style>
<g id="Livello_1" class="st0">
	<path class="st1" d="M98.6,33.6c20.1-20.1,52.7-20.1,72.8,0c9.6,9.6,15,22.5,15.1,36c-0.6-0.7-1.2-1.3-2-1.9
		c-2.7-2-4.1-8.8-4.4-11.5l0,0c0.2,1.9,0.3,3.9,0.3,5.8c0,4-0.3,8-0.9,12c-1.8,12.9-8,26.6-11.7,30.8l-0.2,0.2l-0.8,0.9l0,0
		c-8.9,7.3-17.1,9.9-31.4,9.9h-0.1c-14.2,0-22.4-2.6-31.4-9.9l0,0l-0.8-0.9l-0.2-0.2c-3.7-4.2-10-18-11.7-30.9c-0.6-4-0.9-8-0.9-12
		c0-1.9,0.1-3.7,0.3-5.4v0.3c-0.3,2.6-1.1,7.1-4,8.8c-1.2,0.7-2.1,1.7-2.8,2.9C83.9,55.4,89.3,42.9,98.6,33.6 M172.4,106.8l0.4-0.3
		c0.2-0.2,0.4-0.4,0.5-0.6l0.3-0.4c0.2-0.2,0.4-0.4,0.5-0.6l0.3-0.4l0.5-0.6l0.3-0.4l0.5-0.6l0.3-0.4c0.2-0.2,0.3-0.4,0.5-0.6
		l0.3-0.4l0.5-0.6l0.3-0.4l0.5-0.7l0.2-0.3l0.5-0.7l0.2-0.3c0.1-0.2,0.3-0.5,0.4-0.7s0.1-0.2,0.2-0.3s0.3-0.5,0.4-0.7l0.2-0.3
		l0.4-0.8c0.1-0.1,0.1-0.2,0.2-0.3l0.4-0.8l0.2-0.3l0.4-0.8c0-0.1,0.1-0.2,0.2-0.3c0.1-0.3,0.3-0.5,0.4-0.8l0.1-0.3
		c0.1-0.3,0.3-0.6,0.4-0.8l0.1-0.3c0.1-0.3,0.2-0.6,0.4-0.9l0.1-0.3l0.4-0.9l0.1-0.3c0.1-0.3,0.2-0.6,0.3-0.9l0.1-0.3
		c0.1-0.3,0.2-0.6,0.3-0.9l0.1-0.2l0.3-1c0-0.1,0.1-0.2,0.1-0.2c0.1-0.3,0.2-0.7,0.3-1l0.1-0.2c0.1-0.3,0.2-0.7,0.3-1
		c0-0.1,0-0.1,0-0.2c0.1-0.3,0.2-0.7,0.3-1v-0.2l0.2-1.1c0,0,0-0.1,0-0.1c0.1-0.4,0.1-0.8,0.2-1.1c0,0,0-0.1,0-0.1
		c0.1-0.4,0.1-0.8,0.2-1.2c0,0,0,0,0-0.1c0.1-0.4,0.1-0.8,0.2-1.2l0,0c0.3-2.2,0.4-4.3,0.4-6.5c-1.3-28.9-25.8-51.3-54.8-50
		c-27.1,1.2-48.8,22.9-50,50c0,0.5,0,0.9,0,1.4l0,0c0,0.3,0,0.6,0,0.9c0,0.1,0,0.3,0,0.4l0.1,1.1c0,0.1,0,0.2,0,0.2
		c0,0.4,0,0.9,0.1,1.3v0.3l0.1,1l0.1,0.5L83,78l0.1,0.6l0.1,0.7c0,0.2,0.1,0.4,0.1,0.6s0.1,0.5,0.1,0.7s0.1,0.4,0.1,0.6l0.2,0.7
		c0,0.2,0.1,0.4,0.1,0.6s0.1,0.4,0.2,0.6s0.1,0.4,0.2,0.6s0.1,0.4,0.2,0.6s0.1,0.4,0.2,0.6l0.2,0.6c0.1,0.2,0.1,0.4,0.2,0.6
		s0.1,0.4,0.2,0.6l0.2,0.6l0.2,0.6c0.1,0.2,0.2,0.4,0.2,0.6s0.1,0.4,0.2,0.6l0.2,0.6l0.2,0.6c0.1,0.2,0.2,0.4,0.3,0.6l0.2,0.6
		c0.1,0.2,0.2,0.4,0.3,0.6l0.2,0.6l0.3,0.6l0.3,0.5l0.3,0.6l0.3,0.5l0.3,0.6l0.3,0.5c0.1,0.2,0.2,0.4,0.3,0.6L90,97l0.3,0.6
		c0.1,0.2,0.2,0.3,0.3,0.5l0.4,0.6l0.3,0.5l0.4,0.6l0.3,0.5l0.4,0.5l0.3,0.5l0.4,0.5l0.4,0.5c0.1,0.2,0.3,0.3,0.4,0.5
		s0.2,0.3,0.4,0.5l0.4,0.5l0.4,0.4l0.4,0.5l0.4,0.4l0.4,0.5l0.4,0.4l0.5,0.5l0.4,0.4l0.5,0.5l0.4,0.4l0.5,0.5l0.4,0.4l0.5,0.4
		l0.4,0.4l0.5,0.4l0.4,0.4c0.2,0.2,0.3,0.3,0.5,0.4l0.5,0.4l0.5,0.4l0.5,0.4l0.5,0.4l0.5,0.3l0.5,0.4l0.5,0.3l0.5,0.4l0.5,0.3
		l0.5,0.4l0.5,0.3l0.6,0.3l0.5,0.3l0.6,0.3l0.5,0.3l0.6,0.3l0.5,0.3l0.6,0.3l0.6,0.3l0.6,0.3l0.6,0.3l0.6,0.3l0.6,0.2l0.6,0.3
		l0.6,0.2l0.6,0.2l0.6,0.2l0.6,0.2l0.6,0.2l0.6,0.2l0.6,0.2l0.6,0.2l0.6,0.2l0.6,0.2l0.6,0.2l0.6,0.2l0.7,0.2l0.6,0.2l0.7,0.1
		l0.6,0.1l0.7,0.1l0.6,0.1l0.7,0.1l0.6,0.1l0.7,0.1l0.6,0.1l0.7,0.1l0.6,0.1l0.8,0.1h0.6h0.8h0.5h0.9h0.4h2.7h0.4h0.9h0.5h0.8h0.5
		l0.8-0.1l0.6-0.1l0.7-0.1l0.6-0.1l0.7-0.1l0.6-0.1c0.2,0,0.5-0.1,0.7-0.1l0.6-0.1l0.7-0.1l0.6-0.1l0.7-0.1l0.6-0.2l0.7-0.2l0.6-0.2
		l0.6-0.2l0.6-0.2l0.6-0.2l0.6-0.2l0.6-0.2l0.6-0.2l0.6-0.2l0.6-0.2l0.6-0.2l0.6-0.2l0.6-0.2l0.6-0.3l0.6-0.2
		c0.2-0.1,0.4-0.2,0.6-0.3l0.6-0.3l0.6-0.3l0.6-0.3l0.6-0.3c0.2-0.1,0.4-0.2,0.5-0.3s0.4-0.2,0.6-0.3s0.4-0.2,0.5-0.3l0.6-0.3
		l0.5-0.3l0.6-0.4l0.5-0.3l0.6-0.4l0.5-0.3l0.6-0.4l0.5-0.3l0.6-0.4l0.4-0.3l0.6-0.4l0.4-0.3l0.6-0.4l0.4-0.3l0.6-0.5l0.4-0.3
		l0.5-0.5l0.4-0.3c0.2-0.2,0.4-0.3,0.5-0.5l0.4-0.3l0.5-0.5c0.1-0.1,0.2-0.2,0.4-0.3L172.4,106.8"/>
	<path class="st1" d="M100.6,99.2c1.9,2.4,3.9,3.1,4.5,2.7s0.7-2.2,0.3-4.9c-2.7-8.6-4.7-17.3-6-26.2c-1.7-11.8-1.7-22.4,0.9-28.9
		c0.3-0.7,0.6-1.3,1-1.9c0.1-0.2,0.3-0.4,0.5-0.6c5.2-5.2,19.4-7.9,33.6-7.9s28.3,2.6,33.6,7.9c0.2,0.2,0.3,0.4,0.5,0.6
		c0.4,0.6,0.7,1.2,1,1.9c2.5,6.5,2.6,17.1,0.9,28.9c-1.3,8.9-3.3,17.8-6.1,26.3c-0.4,2.6-0.1,4.5,0.4,4.8s2.4-0.2,4.2-2.4
		c4.2-8,7-16.7,8.4-25.6c0.6-3.9,0.9-7.9,0.9-11.8c0.1-6-1-12-3.2-17.5c-1.6-3.8-4.4-7-7.9-9.2c-8.7-5.5-18.7-8.7-29-9.4
		c-1.2-0.1-2.4-0.1-3.6-0.1h-0.1c-1.2,0-2.4,0-3.6,0.1c-10.3,0.7-20.3,3.9-29,9.4c-3.5,2.2-6.3,5.4-7.9,9.2
		c-2.3,5.6-3.4,11.5-3.2,17.5C91.4,75,94.6,87.7,100.6,99.2"/>
	<path class="st1" d="M152.4,109.4c-1.1,0.3-2.1,0.6-3.2,0.8c-4.6,0.9-9.2,1.3-13.8,1.3h-0.1c-4.6,0-9.3-0.4-13.8-1.3
		c-1-0.2-1.9-0.4-2.9-0.7c-2.5-0.6-5.8-1.4-5.9-0.9s1.7,2.1,3.3,3.1c5.3,2,11.3,2.8,19.3,2.8h0.1c8,0,14.1-0.8,19.4-2.9
		c1.6-1,3.4-2.5,3.2-3S154.8,108.9,152.4,109.4"/>
	<path class="st1" d="M168.8,45c0.3,11.3-0.1,22.7-1.2,34c-0.4,2-0.8,3.9-1.3,5.8c1.7-13.9,2.3-27.9,1.8-41.8l0.1,0.2
		C168.4,43.8,168.6,44.4,168.8,45 M164.3,55.9h0.6v-6.4h-0.5c0-3.8-0.1-7.3-0.2-10.4l0.6,0.4c0.4,15.4,0.2,39.8-3.4,61.5
		c-0.2,0.5-0.5,1-0.9,1.4C163.2,87,164.2,70,164.3,55.9 M152.6,55.9h0.2c0,0.9-0.1,15.1-0.1,25.6c-0.3,9.7-0.8,18.8-1.6,25.9
		l-0.6,0.2C151.9,94.3,152.5,74,152.6,55.9 M148.1,92.5h0.6c-0.2,5.9-0.5,11.2-0.8,15.6l-0.6,0.1C147.6,103.8,147.8,98.4,148.1,92.5
		 M144.4,92.5h0.6c-0.1,6.1-0.3,11.6-0.5,16.1l-0.6,0.1C144.1,104.2,144.3,98.7,144.4,92.5 M140.8,73.8h0.6
		c-0.1,13.6-0.2,26.4-0.4,35.2h-0.6C140.6,100.1,140.7,87.3,140.8,73.8 M136.8,92.4h0.6v16.7h-0.6L136.8,92.4z M133,92.4h0.6v16.7
		H133V92.4z M129.2,92.4h0.6c0.1,6.3,0.2,11.9,0.3,16.5h-0.6C129.3,104.4,129.3,98.7,129.2,92.4 M125.5,92.5h0.6
		c0.1,6.1,0.3,11.7,0.5,16.2l-0.6-0.1C125.8,104.1,125.6,98.6,125.5,92.5 M121.2,56h0.6c0.1,18.8,0.5,39.4,1.5,52.2l-0.6-0.1
		C121.6,95.3,121.3,74.7,121.2,56 M119.3,107.4c-1-9-1.5-21.2-1.8-33.7h0.6c0.3,12.6,0.9,24.8,1.8,33.8L119.3,107.4 M110,49.5h-0.6
		c0-4.3,0-8.4,0.1-11.9l0.6-0.2C110,41,110,45.1,110,49.5 M113.9,49.5h-0.6c0-4.8,0-9.2,0.1-13.2l0.6-0.2
		C113.9,40.1,113.9,44.7,113.9,49.5 M117.8,49.5h-0.6c0-5,0-9.8,0-14.1l0.6-0.1C117.8,39.6,117.8,44.4,117.8,49.5 M119.9,68v4.9
		h-4.5l0.1,18.8h-5l-1.2-41.4l11.9,0.1v4.8h-5.8V68H119.9z M117.3,56h0.6c0,3.7,0.1,7.5,0.1,11.2h-0.6
		C117.3,63.5,117.3,59.7,117.3,56 M112.7,104.4c-0.6-3.8-1.1-7.8-1.5-12h0.6c0.4,4.3,0.9,8.5,1.6,12.4L112.7,104.4 M116,106.2
		c-0.6-4.1-1-8.8-1.4-13.7h0.6c0.4,5,0.8,9.7,1.4,13.9L116,106.2 M121.7,49.5h-0.6c0-5.3,0-10.3,0-14.8l0.6-0.1
		C121.7,39.2,121.7,44.2,121.7,49.5 M125.7,49.5h-0.6c0-5.3,0-10.5,0-15.2l0.6-0.1C125.7,38.9,125.7,44.1,125.7,49.5 M129.5,34
		c0,4.8,0,10.1,0,15.5H129c0-5.4,0-10.7,0-15.5L129.5,34 M133.6,49.6H133V33.9h0.6L133.6,49.6z M137.6,49.6H137V33.9h0.6V49.6z
		 M141.6,49.6H141c0-5.5,0-10.7,0-15.6h0.6C141.6,38.9,141.6,44.1,141.6,49.6 M145.5,34.3c0,4.7,0,9.9,0,15.3l-0.1-0.1h-0.6
		c0-5.4,0-10.6,0-15.3L145.5,34.3 M149.4,49.5h-0.6c0-5.3,0-10.3,0-14.9l0.6,0.1C149.4,39.3,149.4,44.3,149.4,49.5 M157.1,36.3
		c0,4,0.1,8.4,0.1,13.2h-0.6c0-4.8,0-9.3-0.1-13.3L157.1,36.3 M161.1,49.5h-0.6c0-4.4-0.1-8.5-0.1-12.2l0.6,0.2
		C161.1,41.2,161.1,45.2,161.1,49.5 M159.8,77c0.3-6,0.5-12,0.6-17.8c0.1-1.9,0.1-3.1,0.1-3.4h0.5c-0.1,11.6-0.6,24.7-1.8,36.6
		C159.2,92,159.5,84.8,159.8,77 M157.1,104.8c0.6-3.9,1.1-8,1.6-12.3h0.6c-0.4,4.2-0.9,8.2-1.5,11.9L157.1,104.8 M153.8,106.4
		c0.6-4.2,1-8.9,1.4-13.9h0.6c-0.4,4.9-0.8,9.5-1.4,13.7L153.8,106.4 M158.5,91.7h-5l0.2-36.6v0h-4.4v-4.8l14.8-0.1v4.8h-4.4
		L158.5,91.7z M144.4,73L144.4,73h-6.3v18.7h-4.8l-0.5-41.4h12.1c5.5,10.6,5.1,28.5,4.9,39.3c0,0.7,0,1.4,0,2.1h-4.7v-0.1
		C145.1,91.5,145.1,76.6,144.4,73 M148.8,55.9h0.6c0,1.9,0,3.9,0,5.8c-0.2-1-0.4-1.9-0.6-2.9C148.8,57.9,148.8,56.9,148.8,55.9
		 M129.7,50.3l-0.1,41.4h-5.1l-0.8-41.4L129.7,50.3z M153.2,35.4c0,4.3,0.1,9,0.1,14.1h-0.6c0-5.1,0-9.9-0.1-14.2L153.2,35.4
		 M109.1,100.9c-3.6-21.6-3.9-46.1-3.4-61.5c0.2-0.1,0.4-0.3,0.6-0.4c-0.5,15.7-0.2,41.1,3.7,63.3
		C109.6,101.9,109.3,101.4,109.1,100.9 M102.9,79c-1.1-11.3-1.5-22.7-1.2-34c0.2-0.6,0.4-1.2,0.6-1.8c0-0.1,0-0.1,0.1-0.2
		c-0.5,14,0.2,28,1.8,41.9C103.7,82.9,103.3,81,102.9,79 M168.3,43.2c-0.2-0.6-0.5-1.1-0.9-1.6c-0.1-0.2-0.2-0.3-0.4-0.5
		c-4.4-4.5-17-7.3-31.8-7.3s-27.4,2.9-31.8,7.3c0,0-0.1,0.2-0.3,0.5c-0.3,0.5-0.6,1.1-0.8,1.6c-2.2,5.8-2.5,15.5-0.8,27.5
		c1.4,10.1,3.9,20.1,7.4,29.7c0.4,1.3,1.2,2.4,2.4,3.1c3.3,2.3,7,3.8,10.9,4.6c4.4,0.8,8.8,1.2,13.2,1.2h0.1c4.4,0,8.9-0.4,13.2-1.2
		c3.9-0.7,7.6-2.3,10.8-4.6c1.1-0.7,1.9-1.8,2.4-3.1c3.5-9.6,6-19.6,7.4-29.7C170.9,58.7,170.6,48.9,168.3,43.2"/>
	<path class="st1" d="M140.9,56.4c0.2,0.5,0.4,1.1,0.6,1.7c0,3.1,0,6.2,0,9.3h-0.6C140.9,63.8,140.9,60.1,140.9,56.4 M143.5,63.2
		c-0.4-2.8-1.2-5.6-2.3-8.2l0,0h-0.1h-3l0,0l-0.1,13.3l0,0h6.3l0,0C144.3,68.2,144,65.9,143.5,63.2"/>
</g>
<g id="Livello_2">
	<g>
		<rect x="110.1" y="30.3" class="st2" width="11.4" height="79.4"/>
		<path class="st2" d="M158.9,30.3c0,3.2,0,6.4,0,9.6c2.9,0,5.9,0,8.8,0c0,23.3,0,46.5,0,69.8c3.7,0,7.4,0,11,0
			c0-23.3,0-46.5,0-69.8c2.9,0,5.8,0,8.7,0c0-3.2,0-6.4,0-9.6C177.9,30.3,168.4,30.3,158.9,30.3z"/>
		<path class="st2" d="M82.6,109.7c3.7,0,7.4,0,11,0c0-12,0-24,0-36c3.1,0,6.3,0,9.4,0c0-3.1,0-6.3,0-9.4c-3.1,0-6.3,0-9.4,0
			c0-8.1,0-16.2,0-24.3c4.1,0,8.2,0,12.3,0c0-3.2,0-6.4,0-9.6c-7.8,0-15.5,0-23.3,0C82.6,56.8,82.6,83.2,82.6,109.7z"/>
		<path class="st2" d="M160.3,99.2c0-3.5,0-7-0.1-10.5c-0.1-3.5-0.1-7-0.3-10.5c-0.1-3.5-0.3-7-0.6-10.4c-0.3-3.4-0.6-6.8-1-10.1
			c-0.4-3.3-1-6.6-1.6-9.7c-0.7-3.2-1.5-6.2-2.5-9.2c-1-3-2.2-5.8-3.6-8.5c-7.8,0-15.5,0-23.3,0c0,26.5,0,52.9,0,79.4
			c3.3,0,6.6,0,9.9,0c0-12,0-24,0-36c4,0,8.1,0,12.1,0c0.3,5.8,0.5,11.8,0.5,17.9c0,3,0,6.1,0.1,9.1c0,3,0,6,0,9.1
			c3.4,0,6.9,0,10.3,0c0-1.7,0-3.5,0-5.2C160.3,102.7,160.3,101,160.3,99.2z M137.3,64.2c0-8.1,0-16.2,0-24.3c2.1,0,4.3,0,6.4,0
			c2.6,6.9,4.2,15.3,5,24.3C144.9,64.2,141.1,64.2,137.3,64.2z"/>
	</g>
</g>
</svg>
