<?xml version="1.0" encoding="utf-8"?>
<!-- Generator: Adobe Illustrator 27.5.0, SVG Export Plug-In . SVG Version: 6.00 Build 0)  -->
<svg version="1.1" id="Livello_1" xmlns="http://www.w3.org/2000/svg" xmlns:xlink="http://www.w3.org/1999/xlink" x="0px" y="0px"
	 viewBox="0 0 270 140" style="enable-background:new 0 0 270 140;" xml:space="preserve">
<path d="M220.1,97.1h-4.1l0.3-0.6c0.4-1.2,1.6-1.9,2.9-1.8h2.1C220.9,95.5,220.5,96.3,220.1,97.1z"/>
<path d="M215.7,106.2l3.7-7.5h-4.1l-3.2,6.5c-0.3,0.7-1,1.1-1.7,1h-9.9l4-8c0.6-1.1,0.8-1.2,2.1-1.2h1.2c0.9,0.1,1.8-0.4,2.1-1.2
	c0.2-0.4,0.4-0.7,0.6-1.1h-4.2l1.8-3.7h-2.6c-0.9-0.1-1.8,0.4-2.1,1.2l-1.2,2.4h-2.2c-0.4,0.8-0.8,1.6-1.2,2.3h2.2
	c-0.4,0.9-3.6,7.3-4.1,8.2c-0.3,0.7-1,1.1-1.7,1h-8.8l4.7-8.5h-3.2c-0.6,0-1.2,0.3-1.6,0.8c0-0.6-0.2-0.8-0.8-0.8h-2.2
	c-3.7,0-5.7,1.1-7.3,4c-0.6,1.2-1.3,2.3-1.9,3.5c-0.3,0.7-1,1.1-1.7,1h-5.7c-2,0-2.9-0.3-3.1-1.4s0.3-2.1,3-3.9l1.6-1
	c0.7-0.5,1-0.7,0.9-1.2s-0.4-1-2.6-1h-10.6c-0.9-0.1-1.8,0.4-2.2,1.2l-3.4,6.3c-0.3,0.7-1,1.1-1.7,1h-17.1c0.2-0.7,0.5-1.4,0.7-2.1
	h8.5c1.7,0,2.4-0.4,3-1.9l0.8-1.9c0.3-0.5,0.3-1.2,0-1.7c-0.4-0.6-1.4-0.9-3-0.9h-8.2c-2.6,0-3.8,0.7-4.7,2.9
	c-0.6,1.3-1.1,2.7-1.7,4c-0.4,1.1-1.6,1.8-2.8,1.6h-5.9l0.4-0.6c1.2-1.7,0.9-4-0.6-5.3c-1.5-1.4-3.3-2.3-5.3-2.7H108l-3,5.9
	c-1.3,2.4-2.7,2.8-5.2,2.8h-5.6l4.7-8.6h-3.2c-0.6,0-1.2,0.3-1.6,0.8c0-0.6-0.2-0.8-0.8-0.8h-2.2c-3.7,0-5.7,1.1-7.3,4
	c-0.6,1.2-1.3,2.3-1.9,3.5c-0.3,0.7-1,1.1-1.7,1h-8.4l7.1-13c0.3-0.5,0.1-1.2-0.4-1.6c-0.2-0.1-0.4-0.1-0.6-0.1H44.5
	c-2.3,0-3.4,0.6-4.5,2.4h14.4l-8,14.7h4.2l8-14.7h5.8l-8,14.7h4.2l8-14.7h5.8c-2.2,4.1-4.4,8.1-6.6,12.2c-0.4,0.5-0.5,1.2-0.3,1.9
	c0.3,0.4,1,0.7,2,0.7h11c0.4,0,0.9-0.2,1.1-0.6c0,0.4,0.4,0.6,0.8,0.6H101c3.7,0,5.7-1.1,7.3-4l2.5-4.5h0.2c3,0.6,4.5,1.7,4.6,3.4
	c0.1,0.7-0.2,1.3-0.6,1.8c-0.6,0.6-1.4,1-2.3,1c-1.9,0-2.7,0.7-3.4,2.4h15.9c0.4,0,0.9-0.2,1.1-0.6c0,0.4,0.4,0.6,0.8,0.6h23.6
	c1.3,0.2,2.6-0.6,3.1-1.9l2.8-5c0.5-1.1,1.6-1.7,2.8-1.6h4.2c-0.7,0.5-1.4,1.1-2.1,1.7c-0.9,0.9-1.5,2.1-1.7,3.4
	c-0.1,0.9,0.1,1.8,0.7,2.5c0.6,0.6,1.5,1,2.4,0.9h9.7c0.4,0,0.9-0.2,1.1-0.6c0,0.4,0.4,0.6,0.8,0.6h20.4c0.4,0,0.9-0.2,1.1-0.6
	c0,0.4,0.4,0.6,0.8,0.6h30.2c1.8,0,2.7-0.6,3.1-2l0.1-0.4L215.7,106.2z M133.1,101.1c0.3-0.9,1.3-1.4,2.2-1.3h4.6l-0.3,0.9
	c-0.3,0.8-1.1,1.4-2,1.2h-4.9L133.1,101.1z M90.9,104.6c-0.5,1.1-1.6,1.7-2.8,1.6h-2.3l2.5-4.5c0.5-1.1,1.6-1.7,2.8-1.6h2.3
	C92.5,101.5,91.7,103,90.9,104.6z M183,104.6c-0.5,1.1-1.6,1.7-2.8,1.6H178l2.5-4.5c0.5-1.1,1.6-1.7,2.8-1.6h2.3
	C184.7,101.5,183.9,103,183,104.6L183,104.6z"/>
<path d="M131.3,82.3v-2.1H142v2.1H131.3z"/>
<path d="M136.6,86.6h3.4v-3.2h-6.7v3.2H136.6"/>
<path d="M133.2,79.2c0.1-1.8-0.6-3.5-1.9-4.7h10.6c-1.3,1.2-2,3-1.9,4.7H133.2L133.2,79.2z"/>
<path d="M124.3,71v-1.6h24.6V71H124.3z"/>
<path d="M125.4,76.5c1.5-0.3,2.9-1.1,4-2.1h-4.3L125.4,76.5z"/>
<path d="M147.8,76.5c-1.5-0.3-2.9-1.1-4-2.1h4.3L147.8,76.5z"/>
<path d="M123.9,66.1c-1.3-8-4-16.3-6.8-21.8c3.7,2.1,7,4.8,9.9,7.9c-1.4-0.4-2.9-0.7-4.4-0.9c2,4.8,3.7,9.8,5.3,14.8H123.9z"/>
<path d="M149.3,66.1c1.4-8,4-16.3,6.8-21.8c-3.7,2.1-7,4.8-9.9,7.9c1.4-0.4,2.9-0.7,4.4-0.9c-2,4.8-3.8,9.8-5.3,14.8H149.3z"/>
<path d="M123,68.6v-1.6h27.2v1.6H123z"/>
<path d="M132,43.4c2.2-3.7,3.8-7.8,4.6-12c0.8,4.2,2.3,8.3,4.6,12l-2.4-1.1c-0.8-0.3-1.1-0.1-1.1,0.7c0.2,7.7,1.4,16.4,5.4,23h-4.7
	c-0.7-1.7-1.3-3.5-1.8-5.2c-0.5,1.8-1.1,3.5-1.8,5.2h-4.7c4-6.7,5.1-15.4,5.4-23c0-0.8-0.3-1-1.1-0.7L132,43.4z"/>
<path d="M123,73.3v-1.6h27.2v1.6H123z"/>
</svg>
