<?xml version="1.0" encoding="utf-8"?>
<!-- Generator: Adobe Illustrator 23.0.4, SVG Export Plug-In . SVG Version: 6.00 Build 0)  -->
<svg version="1.1" id="Livello_1" xmlns="http://www.w3.org/2000/svg" xmlns:xlink="http://www.w3.org/1999/xlink" x="0px" y="0px"
	 viewBox="0 0 270 140" style="enable-background:new 0 0 270 140;" xml:space="preserve">
<style type="text/css">
	.st0{fill:#FFFFFF;}
</style>
<path class="st0" d="M178,55.2c-1.6-1.4-5.6-4.8-7-12.7l-11.2-4.4c0,0-0.2-0.1-0.2,0s0,0.1-0.1,0.1c-3,3.1-13.5,0.8-24.3,0.8h-0.5
	c-10.8,0-21.3,2.3-24.3-0.8c-0.1-0.1,0-0.1-0.1-0.1s-0.2,0-0.2,0L99,42.5c-1.4,7.9-5.3,11.3-7,12.7c2.7,2,5.5,4.9,5.5,9
	c0,3.6-3.8,14.7-3.8,24c0,25.3,20,35,32.3,38.1c3.1,0.8,6.9,3.8,8.8,5.5c0.1,0.1,0.3,0.1,0.5,0c1.9-1.7,5.7-4.7,8.8-5.5
	c12.3-3.1,32.3-12.7,32.3-38c0-9.3-3.9-20.5-3.9-24C172.5,60.1,175.3,57.2,178,55.2 M100.9,45c0.1-0.4,0.1-0.8,0.1-1.1l9-3.3
	c0,0,0.1,1.8,9.6,1.4c0.4,0,2.1-0.1,2.6-0.1c3.9-0.3,7.9-0.5,12-0.5h1.7c4.1,0,8.1,0.3,12,0.5c0.5,0,2.2,0.1,2.6,0.1
	c9.5,0.4,9.6-1.4,9.6-1.4l9,3.3c0,0.4,0,0.8,0.1,1.1c0.9,3.8,2.7,7.4,5.4,10.2H95.5C98.2,52.4,100,48.8,100.9,45 M174.1,88.3
	c0,25.5-21.4,33.6-30.6,35.9c-3.1,0.8-6.6,3.3-8.5,4.9c-2-1.6-5.4-4.1-8.5-4.9c-9.2-2.3-30.6-10.4-30.6-35.9
	c0-5.5,1.4-11.7,2.5-16.7c0.7-2.4,1.1-4.9,1.3-7.3c0-2.5-0.8-4.9-2.4-6.9h75.3c-1.5,2-2.3,4.4-2.4,6.9c0.2,2.5,0.6,4.9,1.3,7.3
	C172.7,76.6,174.1,82.8,174.1,88.3"/>
<path class="st0" d="M164.9,46c0,1,0,1.6,0,2.6c-2.2-0.2-3.3-0.3-5.6-0.5c0-1.1,0-1.7,0-2.8c-4.4-0.5-9.2-0.9-13.9-1.3v1.4
	c-0.3-0.9-1-1.4-2.4-1.5c-2.7-0.1-5.3-0.2-8-0.2V52l-4.3-8.3c-1.4,0-2.1,0-3.4,0.1c-1.3,2.5-2.5,5-3.8,7.5c0-0.3,0.1-0.5,0.1-0.8
	c0-1.4-0.4-2-1.6-2.1l0,0c0.7-0.2,1.3-0.6,1.3-2.1c0-1.8-1-2.3-3.2-2.2c-2.5,0.2-5.1,0.4-7.6,0.7c0,3,0,4.6,0,7.6
	c-1.4-2.5-2.9-4.9-4.4-7.1c-1.4,0.2-2.1,0.3-3.4,0.5c-1.5,2.4-3,4.8-4.7,7h3c0.3-0.5,0.5-0.7,0.8-1.2l5.4-0.1l0.8,1.4H121
	c0.7,0.1,1.4-0.1,2-0.5c-0.1,0.2-0.2,0.3-0.3,0.5h3c0.3-0.6,0.5-1,0.8-1.6h5.4l0.8,1.6h5.1v-2.4h4.2c0.8,0,1.1,0.3,1.1,1.3v1.1h2.6
	c0-0.6,0-0.9,0-1.5c0-1.5-0.6-1.8-1.4-2l0,0c1.2-0.3,1.5-1,1.5-2.2v-0.6c0-0.2,0-0.3,0-0.4l3.6,0.2c0,2.6,0,3.9,0,6.5h2.6
	c0-2.5,0-3.8,0-6.3c1.9,0.1,2.9,0.2,4.9,0.4c0,2.4,0,3.6,0,5.9h2.6c0-1.1,0-1.7,0-2.9c2.2,0.1,3.3,0.2,5.6,0.3c0,1,0,1.5,0,2.5h2.6
	v-6.4c-1-0.2-1.6-0.4-2.6-0.5 M104.7,50.1c0.7-1.1,1-1.7,1.7-2.8c0.7,1,1,1.5,1.7,2.7L104.7,50.1 M115.2,46.5
	c1.9-0.1,2.8-0.2,4.7-0.3c0.5,0,0.8,0.1,0.8,0.7c0,0.5-0.3,0.7-0.8,0.7c-1.9,0.1-2.8,0.1-4.7,0.2V46.5 M120,50.8
	c-1.9,0-2.8,0-4.7,0.1c0-0.5,0-0.8,0-1.3c1.9-0.1,2.8-0.1,4.8-0.2c0.6,0,1,0.1,1,0.7S120.6,50.8,120,50.8 M127.5,49.3
	c0.7-1.4,1-2.1,1.7-3.5c0.7,1.4,1,2.1,1.7,3.5L127.5,49.3 M143,47.3c0,0.7-0.3,0.9-1,0.9l-4.4-0.1V46c1.7,0,2.5,0,4.1,0.1
	c0.8,0,1.2,0.2,1.2,1L143,47.3"/>
<polygon class="st0" points="141.6,104.1 144.8,103.7 147.7,101.6 147.7,110.3 143.3,110.8 141.6,109.7 "/>
<polygon class="st0" points="141.3,110.2 143.2,111.4 147.5,111 140.9,118.7 138.2,116.4 137.7,114.6 "/>
<polygon class="st0" points="137.2,114.9 137.7,116.7 140.2,119 132.3,120.7 131.5,118.4 132.1,116.9 "/>
<polygon class="st0" points="131.6,116.9 130.9,118.4 131.7,120.9 123.1,113.9 125.1,113.1 "/>
<polygon class="st0" points="128.2,85.9 115.9,95.1 113.1,89.4 118.7,88.3 125.2,77.8 118.3,81.8 122.3,67.4 108.5,81.2 
	112.3,100.4 131.9,90.7 "/>
<polygon class="st0" points="141.4,79.4 156.2,75.1 153.4,69.5 148.9,73.6 136.6,72.3 144.2,69 130.4,63.4 149.7,60.8 162.6,75.6 
	143.1,85.2 "/>
<polygon class="st0" points="137.9,80.4 135.3,83.6 131.2,83.7 132.3,90.5 142.7,85.4 "/>
<polygon class="st0" points="153.3,96.7 152.4,97.7 146.7,98.1 146.1,96 152.2,95.4 152.4,92.7 151.6,93.7 145.6,94.1 145,92.1 
	151.2,91.6 151.6,88.8 150.7,89.8 144.5,90.2 143.9,88.3 150.2,87.7 150.7,84.9 149.9,85.9 143.3,85.8 132.1,91.4 128.3,96.5 
	127,96.6 129.5,97.9 133.8,93.3 135,94.9 130.9,99.6 129.6,99.7 132,101.1 136.2,96.5 137.4,98.1 133.4,102.6 132.2,102.7 
	134.4,104.2 138.6,99.7 139.9,101.4 136.1,105.7 134.8,105.8 137.1,107.3 141.1,103 141.4,103.5 144.6,103 147.6,100.9 147.2,100 
	153,99.4 "/>
<polygon class="st0" points="124.6,112.3 119.2,114.5 123,100.9 "/>
</svg>
