<svg id="Livello_1" data-name="Livello 1" xmlns="http://www.w3.org/2000/svg" width="270" height="140" viewBox="0 0 270 140"><defs><style>.cls-1{fill:#fff;}</style></defs><path class="cls-1" d="M220.14,97.1h-4.07l.28-.57a2.69,2.69,0,0,1,2.87-1.77h2.08C220.91,95.54,220.52,96.32,220.14,97.1Z"/><path class="cls-1" d="M215.74,106.15l3.74-7.52h-4.07l-3.22,6.49a1.7,1.7,0,0,1-1.72,1h-9.89l4-8c.56-1.13.78-1.21,2.09-1.21h1.19A2,2,0,0,0,210,95.67c.18-.37.37-.74.55-1.12h-4.21l1.81-3.66H205.5a2,2,0,0,0-2.15,1.21l-1.21,2.44h-2.22c-.38.78-.77,1.56-1.16,2.34H201c-.45.91-3.63,7.32-4.09,8.23a1.68,1.68,0,0,1-1.71,1h-8.78l4.67-8.54h-3.23a1.75,1.75,0,0,0-1.55.81c0-.61-.22-.81-.81-.81h-2.24c-3.67,0-5.72,1.14-7.32,4-.63,1.16-1.26,2.32-1.9,3.47a1.73,1.73,0,0,1-1.71,1h-5.66c-2,0-2.85-.3-3.08-1.37s.28-2.1,3-3.92l1.56-1c.72-.48,1-.73.92-1.25s-.37-1-2.62-1H155.8a2,2,0,0,0-2.16,1.23l-3.45,6.29a1.72,1.72,0,0,1-1.71,1H131.39c.25-.71.49-1.43.73-2.14h8.54c1.68,0,2.38-.44,3-1.87l.81-1.92a1.78,1.78,0,0,0,0-1.68c-.4-.61-1.43-.93-3-.93h-8.2c-2.62,0-3.81.73-4.73,2.89-.57,1.34-1.14,2.67-1.7,4a2.57,2.57,0,0,1-2.8,1.64h-5.87l.37-.55a4,4,0,0,0-.61-5.32,10.72,10.72,0,0,0-5.32-2.67h-4.56L105,103.36c-1.3,2.39-2.72,2.81-5.23,2.81H94.2l4.68-8.55H95.64a1.73,1.73,0,0,0-1.55.81c0-.61-.22-.81-.81-.81H91.05c-3.67,0-5.72,1.14-7.32,4-.63,1.16-1.26,2.32-1.9,3.47a1.7,1.7,0,0,1-1.71,1h-8.4l7.12-13a1.14,1.14,0,0,0-1-1.7H44.46c-2.27,0-3.39.58-4.46,2.4H54.43l-8,14.7h4.15l8-14.7h5.78l-8,14.7h4.16l8-14.69H74.3Q71,99.91,67.66,106a2.06,2.06,0,0,0-.28,1.87c.27.45,1,.69,2,.69h11a1.22,1.22,0,0,0,1.1-.57c0,.44.37.57.79.57H101c3.73,0,5.72-1.09,7.33-4l2.48-4.54.25,0c3,.57,4.47,1.67,4.6,3.36a2.38,2.38,0,0,1-.63,1.83,3.15,3.15,0,0,1-2.33,1c-1.9,0-2.66.74-3.4,2.37h15.94a1.22,1.22,0,0,0,1.1-.57c0,.44.37.57.8.57h23.57a2.93,2.93,0,0,0,3.08-1.87l2.76-5a2.75,2.75,0,0,1,2.78-1.6h4.16a15,15,0,0,0-2.08,1.73,5.58,5.58,0,0,0-1.69,3.37,3.14,3.14,0,0,0,.71,2.49,3.09,3.09,0,0,0,2.36.93h9.69a1.24,1.24,0,0,0,1.1-.57c0,.44.37.57.79.57h20.39a1.22,1.22,0,0,0,1.1-.57c0,.44.37.57.79.57h30.16c1.82,0,2.74-.59,3.08-2l.11-.43Zm-82.61-5.06a2,2,0,0,1,2.22-1.27H140l-.33.94a1.78,1.78,0,0,1-2,1.2h-4.85Zm-42.27,3.46a2.71,2.71,0,0,1-2.78,1.61h-2.3l2.48-4.54a2.77,2.77,0,0,1,2.79-1.6h2.29Q92.11,102.29,90.86,104.55Zm92.18,0a2.71,2.71,0,0,1-2.78,1.61H178l2.48-4.54a2.77,2.77,0,0,1,2.79-1.6h2.29Q184.29,102.29,183,104.55Z"/><path class="cls-1" d="M131.26,82.32V80.23H142v2.09H131.26Z"/><path class="cls-1" d="M136.6,86.64H140V83.4h-6.74v3.24h3.37"/><path class="cls-1" d="M133.23,79.15a5.88,5.88,0,0,0-1.91-4.73h10.56A5.92,5.92,0,0,0,140,79.15h-6.74Z"/><path class="cls-1" d="M124.3,71V69.43h24.6V71H124.3Z"/><path class="cls-1" d="M125.4,76.53a8.82,8.82,0,0,0,4-2.11h-4.28Z"/><path class="cls-1" d="M147.8,76.53a8.83,8.83,0,0,1-4-2.11h4.28Z"/><path class="cls-1" d="M123.89,66.05c-1.35-8-4-16.3-6.82-21.77A43.44,43.44,0,0,1,127,52.22a43.67,43.67,0,0,0-4.4-.93c2,4.84,3.73,9.77,5.27,14.76Z"/><path class="cls-1" d="M149.32,66.05c1.35-8,4-16.3,6.81-21.77a43.41,43.41,0,0,0-9.91,7.94,42.53,42.53,0,0,1,4.4-.93,151.68,151.68,0,0,0-5.27,14.76Z"/><path class="cls-1" d="M123,68.63V67.07h27.21v1.56H123Z"/><path class="cls-1" d="M132,43.44a35.64,35.64,0,0,0,4.58-12,35.65,35.65,0,0,0,4.59,12l-2.42-1.09c-.76-.34-1.08-.14-1.06.65.25,7.67,1.38,16.4,5.39,23h-4.72a39,39,0,0,1-1.78-5.24,37.61,37.61,0,0,1-1.77,5.24h-4.72c4-6.65,5.13-15.38,5.38-23,0-.79-.29-1-1.05-.65Z"/><path class="cls-1" d="M123,73.34V71.78h27.21v1.56H123Z"/></svg>