<?xml version="1.0" encoding="utf-8"?>
<!-- Generator: Adobe Illustrator 27.5.0, SVG Export Plug-In . SVG Version: 6.00 Build 0)  -->
<svg version="1.1" id="Livello_1" xmlns="http://www.w3.org/2000/svg" xmlns:xlink="http://www.w3.org/1999/xlink" x="0px" y="0px"
	 viewBox="0 0 270 140" style="enable-background:new 0 0 270 140;" xml:space="preserve">
<g>
	<path d="M178,40.2c-1.6-1.4-5.6-4.8-7-12.7l-11.2-4.4c0,0-0.2-0.1-0.2,0s0,0.1-0.1,0.1c-3,3.1-13.5,0.8-24.3,0.8h-0.5
		c-10.8,0-21.3,2.3-24.3-0.8c-0.1-0.1,0-0.1-0.1-0.1s-0.2,0-0.2,0L99,27.5c-1.4,7.9-5.3,11.3-7,12.7c2.7,2,5.5,4.9,5.5,9
		c0,3.6-3.8,14.7-3.8,24c0,25.3,20,35,32.3,38.1c3.1,0.8,6.9,3.8,8.8,5.5c0.1,0.1,0.3,0.1,0.5,0c1.9-1.7,5.7-4.7,8.8-5.5
		c12.3-3.1,32.3-12.7,32.3-38c0-9.3-3.9-20.5-3.9-24C172.5,45.1,175.3,42.2,178,40.2 M100.9,30c0.1-0.4,0.1-0.8,0.1-1.1l9-3.3
		c0,0,0.1,1.8,9.6,1.4c0.4,0,2.1-0.1,2.6-0.1c3.9-0.3,7.9-0.5,12-0.5h1.7c4.1,0,8.1,0.3,12,0.5c0.5,0,2.2,0.1,2.6,0.1
		c9.5,0.4,9.6-1.4,9.6-1.4l9,3.3c0,0.4,0,0.8,0.1,1.1c0.9,3.8,2.7,7.4,5.4,10.2H95.5C98.2,37.4,100,33.8,100.9,30 M174.1,73.3
		c0,25.5-21.4,33.6-30.6,35.9c-3.1,0.8-6.6,3.3-8.5,4.9c-2-1.6-5.4-4.1-8.5-4.9c-9.2-2.3-30.6-10.4-30.6-35.9
		c0-5.5,1.4-11.7,2.5-16.7c0.7-2.4,1.1-4.9,1.3-7.3c0-2.5-0.8-4.9-2.4-6.9h75.3c-1.5,2-2.3,4.4-2.4,6.9c0.2,2.5,0.6,4.9,1.3,7.3
		C172.7,61.6,174.1,67.8,174.1,73.3"/>
	<path d="M164.9,31c0,1,0,1.6,0,2.6c-2.2-0.2-3.3-0.3-5.6-0.5c0-1.1,0-1.7,0-2.8c-4.4-0.5-9.2-0.9-13.9-1.3v1.4
		c-0.3-0.9-1-1.4-2.4-1.5c-2.7-0.1-5.3-0.2-8-0.2V37l-4.3-8.3c-1.4,0-2.1,0-3.4,0.1c-1.3,2.5-2.5,5-3.8,7.5c0-0.3,0.1-0.5,0.1-0.8
		c0-1.4-0.4-2-1.6-2.1l0,0c0.7-0.2,1.3-0.6,1.3-2.1c0-1.8-1-2.3-3.2-2.2c-2.5,0.2-5.1,0.4-7.6,0.7c0,3,0,4.6,0,7.6
		c-1.4-2.5-2.9-4.9-4.4-7.1c-1.4,0.2-2.1,0.3-3.4,0.5c-1.5,2.4-3,4.8-4.7,7h3c0.3-0.5,0.5-0.7,0.8-1.2l5.4-0.1l0.8,1.4h11
		c0.7,0.1,1.4-0.1,2-0.5c-0.1,0.2-0.2,0.3-0.3,0.5h3c0.3-0.6,0.5-1,0.8-1.6h5.4l0.8,1.6h5.1v-2.4h4.2c0.8,0,1.1,0.3,1.1,1.3v1.1h2.6
		c0-0.6,0-0.9,0-1.5c0-1.5-0.6-1.8-1.4-2l0,0c1.2-0.3,1.5-1,1.5-2.2v-0.6c0-0.2,0-0.3,0-0.4l3.6,0.2c0,2.6,0,3.9,0,6.5h2.6
		c0-2.5,0-3.8,0-6.3c1.9,0.1,2.9,0.2,4.9,0.4c0,2.4,0,3.6,0,5.9h2.6c0-1.1,0-1.7,0-2.9c2.2,0.1,3.3,0.2,5.6,0.3c0,1,0,1.5,0,2.5h2.6
		v-6.4c-1-0.2-1.6-0.4-2.6-0.5 M104.7,35.1c0.7-1.1,1-1.7,1.7-2.8c0.7,1,1,1.5,1.7,2.7L104.7,35.1 M115.2,31.5
		c1.9-0.1,2.8-0.2,4.7-0.3c0.5,0,0.8,0.1,0.8,0.7c0,0.5-0.3,0.7-0.8,0.7c-1.9,0.1-2.8,0.1-4.7,0.2V31.5 M120,35.8
		c-1.9,0-2.8,0-4.7,0.1c0-0.5,0-0.8,0-1.3c1.9-0.1,2.8-0.1,4.8-0.2c0.6,0,1,0.1,1,0.7S120.6,35.8,120,35.8 M127.5,34.3
		c0.7-1.4,1-2.1,1.7-3.5c0.7,1.4,1,2.1,1.7,3.5H127.5 M143,32.3c0,0.7-0.3,0.9-1,0.9l-4.4-0.1V31c1.7,0,2.5,0,4.1,0.1
		c0.8,0,1.2,0.2,1.2,1L143,32.3"/>
	<polygon points="141.6,89.1 144.8,88.7 147.7,86.6 147.7,95.3 143.3,95.8 141.6,94.7 	"/>
	<polygon points="141.3,95.2 143.2,96.4 147.5,96 140.9,103.7 138.2,101.4 137.7,99.6 	"/>
	<polygon points="137.2,99.9 137.7,101.7 140.2,104 132.3,105.7 131.5,103.4 132.1,101.9 	"/>
	<polygon points="131.6,101.9 130.9,103.4 131.7,105.9 123.1,98.9 125.1,98.1 	"/>
	<polygon points="128.2,70.9 115.9,80.1 113.1,74.4 118.7,73.3 125.2,62.8 118.3,66.8 122.3,52.4 108.5,66.2 112.3,85.4 131.9,75.7 
			"/>
	<polygon points="141.4,64.4 156.2,60.1 153.4,54.5 148.9,58.6 136.6,57.3 144.2,54 130.4,48.4 149.7,45.8 162.6,60.6 143.1,70.2 	
		"/>
	<polygon points="137.9,65.4 135.3,68.6 131.2,68.7 132.3,75.5 142.7,70.4 	"/>
	<polygon points="153.3,81.7 152.4,82.7 146.7,83.1 146.1,81 152.2,80.4 152.4,77.7 151.6,78.7 145.6,79.1 145,77.1 151.2,76.6 
		151.6,73.8 150.7,74.8 144.5,75.2 143.9,73.3 150.2,72.7 150.7,69.9 149.9,70.9 143.3,70.8 132.1,76.4 128.3,81.5 127,81.6 
		129.5,82.9 133.8,78.3 135,79.9 130.9,84.6 129.6,84.7 132,86.1 136.2,81.5 137.4,83.1 133.4,87.6 132.2,87.7 134.4,89.2 
		138.6,84.7 139.9,86.4 136.1,90.7 134.8,90.8 137.1,92.3 141.1,88 141.4,88.5 144.6,88 147.6,85.9 147.2,85 153,84.4 	"/>
	<polygon points="124.6,97.3 119.2,99.5 123,85.9 	"/>
</g>
</svg>
