<?xml version="1.0" encoding="utf-8"?>
<!-- Generator: Adobe Illustrator 27.5.0, SVG Export Plug-In . SVG Version: 6.00 Build 0)  -->
<svg version="1.1" id="Livello_1" xmlns="http://www.w3.org/2000/svg" xmlns:xlink="http://www.w3.org/1999/xlink" x="0px" y="0px"
	 viewBox="0 0 270 140" style="enable-background:new 0 0 270 140;" xml:space="preserve">
<style type="text/css">
	.st0{fill-rule:evenodd;clip-rule:evenodd;}
</style>
<path d="M92.4,44.1h10.6v27.7c0,4.8-2,14.8-16.7,14.8S70,77.2,70,72v-5.1h10.2v5c-0.1,3.1,2.3,5.8,5.4,5.9c0.2,0,0.3,0,0.5,0
	c3.9,0,6.2-2.2,6.2-5.8V44.1z"/>
<path d="M86.2,86.6c-10.7,0-16.3-5.1-16.3-14.7v-5.2h10.5v5.1c-0.1,3.1,2.2,5.6,5.3,5.8c0.2,0,0.3,0,0.5,0c3.8,0,6.1-2.1,6.1-5.7V44
	H103v27.8c0.1,3.3-0.9,6.5-2.8,9.2C97.3,84.7,92.7,86.6,86.2,86.6z M70.1,67v5c-0.1,3.3,0.8,6.5,2.6,9.2c2.6,3.5,7.2,5.3,13.5,5.3
	s11-1.9,13.8-5.6c1.9-2.7,2.9-5.8,2.8-9.1V44.2H92.5V72c0,3.6-2.4,5.9-6.4,5.9c-3.2,0.1-5.9-2.3-6-5.5c0-0.2,0-0.3,0-0.5V67H70.1z"
	/>
<path d="M119.3,55.6c8.3,0,15.6,3.2,15.6,17.8h-19.6c0,4.7,1.9,6.6,5.3,6.6c1.9,0.1,3.7-1,4.5-2.7h9.7c0,4.2-5.8,9.9-14.5,9.8
	c-10,0-14.9-7.4-14.9-15S109.6,55.6,119.3,55.6L119.3,55.6z M125.2,67.6c0-2.8-1.6-5.6-5.2-5.6s-4.8,2.5-4.8,5.6H125.2z"/>
<path d="M150.8,55.6c8.3,0,15.6,3.2,15.6,17.8h-19.6c0,4.7,1.9,6.6,5.3,6.6c1.9,0.1,3.7-1,4.6-2.7h9.6c0,4.2-5.8,9.9-14.5,9.8
	c-10,0-14.9-7.4-14.9-15S141.2,55.6,150.8,55.6L150.8,55.6z M156.7,67.6c0-2.8-1.6-5.6-5.2-5.6s-4.8,2.5-4.8,5.6H156.7z"/>
<path d="M168.9,95.9V56.8h9.8v4.5c0.3-0.8,0.8-1.6,1.4-2.2c0.7-0.8,2.5-3.1,7.4-3.1s12.5,3.4,12.5,15.4c0,9.3-4.5,16.1-12.4,16.1
	c-4.3,0-6.2-1.5-7.4-2.4c-0.5-0.4-1-0.8-1.4-1.4v12.2H168.9z M178.5,71.8c-0.1,5.8,1.1,8.8,5.9,8.8s5.4-5.2,5.4-9.2
	s-0.9-7.8-5.9-7.8C180.9,63.6,178.7,66,178.5,71.8L178.5,71.8z"/>
<path class="st0" d="M195.3,91.2c-1,1-1,2.6,0,3.6c0.5,0.5,1.1,0.7,1.8,0.7c0.7,0,1.3-0.3,1.8-0.7c0.5-0.5,0.7-1.1,0.7-1.8
	c0-0.7-0.3-1.3-0.7-1.8C197.9,90.3,196.3,90.3,195.3,91.2C195.3,91.2,195.3,91.2,195.3,91.2z M199.2,95.1c-1.1,1.1-3,1.1-4.1,0
	c0,0,0,0,0,0c-0.6-0.5-0.9-1.3-0.8-2.1c0-1.6,1.3-2.9,2.9-2.9c0,0,0,0,0,0c1.6,0,2.9,1.3,2.9,2.9C200,93.8,199.7,94.5,199.2,95.1
	L199.2,95.1z M197.6,91.9c-0.2-0.1-0.4-0.1-0.7-0.1h-0.5V93h0.5c0.2,0,0.4,0,0.5-0.1c0.2-0.1,0.3-0.3,0.3-0.5
	C197.9,92.2,197.8,92.1,197.6,91.9L197.6,91.9z M197,91.4c0.3,0,0.6,0,0.9,0.1c0.3,0.1,0.5,0.5,0.5,0.8c0,0.3-0.1,0.5-0.3,0.6
	c-0.1,0.1-0.3,0.1-0.5,0.2c0.2,0,0.4,0.1,0.6,0.3c0.1,0.1,0.2,0.3,0.2,0.5v0.2c0,0.1,0,0.2,0,0.2c0,0.1,0,0.1,0,0.2l0,0h-0.5v-0.4
	c0-0.3-0.1-0.6-0.3-0.7c-0.2-0.1-0.4-0.1-0.6-0.1h-0.4v1.3h-0.6v-3.2H197z"/>
</svg>
