<svg id="Livello_1" data-name="Livello 1" xmlns="http://www.w3.org/2000/svg" width="270" height="140" viewBox="0 0 270 140"><defs><style>.cls-1,.cls-2{fill:#fff;}.cls-2{fill-rule:evenodd;}</style></defs><path class="cls-1" d="M92.37,44.06h10.55v27.7c0,4.77-2,14.76-16.68,14.76S70,77.21,70,72V66.88H80.22v5a5.65,5.65,0,0,0,5.9,5.91c3.86,0,6.25-2.16,6.25-5.79V44.06Z"/><path class="cls-1" d="M86.23,86.64c-10.69,0-16.35-5.07-16.35-14.65V66.76H80.34v5.11a5.54,5.54,0,0,0,5.78,5.79c3.84,0,6.13-2.12,6.13-5.67v-28H103V71.76A15.58,15.58,0,0,1,100.17,81C97.33,84.74,92.65,86.64,86.23,86.64ZM70.12,67v5a15,15,0,0,0,2.6,9.15c2.61,3.49,7.16,5.26,13.51,5.26s11-1.87,13.75-5.55a15.32,15.32,0,0,0,2.83-9.09V44.17H92.48V72c0,3.64-2.43,5.9-6.36,5.9a5.77,5.77,0,0,1-6-6V67Z"/><path class="cls-1" d="M119.27,55.64c8.29,0,15.56,3.18,15.56,17.82H115.19c0,4.66,1.93,6.59,5.33,6.59a4.87,4.87,0,0,0,4.54-2.73h9.65c0,4.2-5.79,9.88-14.53,9.77-10,0-14.87-7.38-14.87-15s4.31-16.46,14-16.46Zm5.91,11.92c0-2.84-1.59-5.57-5.23-5.57s-4.76,2.5-4.76,5.57Z"/><path class="cls-1" d="M150.83,55.64c8.29,0,15.56,3.18,15.56,17.82H146.75c0,4.66,1.93,6.59,5.33,6.59a4.89,4.89,0,0,0,4.55-2.73h9.65c0,4.2-5.79,9.88-14.54,9.77-10,0-14.87-7.38-14.87-15s4.31-16.46,14-16.46Zm5.91,11.92c0-2.84-1.59-5.57-5.22-5.57s-4.77,2.5-4.77,5.57Z"/><path class="cls-1" d="M168.87,95.94V56.77h9.77v4.47A8.39,8.39,0,0,1,180,59c.66-.79,2.5-3.06,7.38-3.06s12.49,3.4,12.49,15.44c0,9.31-4.54,16.12-12.38,16.12-4.31,0-6.25-1.5-7.38-2.38a6.23,6.23,0,0,1-1.36-1.37V95.94Zm9.65-24.18c-.11,5.79,1.14,8.85,5.91,8.85s5.45-5.22,5.45-9.19S189,63.58,184,63.58c-3.06,0-5.33,2.39-5.45,8.18Z"/><path class="cls-2" d="M195.3,91.24a2.52,2.52,0,0,0,1.78,4.3,2.4,2.4,0,0,0,1.77-.74,2.45,2.45,0,0,0,.74-1.79,2.42,2.42,0,0,0-.74-1.77,2.5,2.5,0,0,0-3.55,0Zm3.85,3.84a2.92,2.92,0,0,1-4.14,0,2.85,2.85,0,0,1-.84-2.07,2.9,2.9,0,0,1,2.91-2.91,2.92,2.92,0,0,1,2.07,5Zm-1.52-3.17a1.45,1.45,0,0,0-.68-.12h-.49V93H197a1.5,1.5,0,0,0,.54-.07.5.5,0,0,0,.33-.5.49.49,0,0,0-.21-.47ZM197,91.4a2.4,2.4,0,0,1,.88.12.79.79,0,0,1,.49.81.68.68,0,0,1-.31.63,1.42,1.42,0,0,1-.47.16.78.78,0,0,1,.56.31.94.94,0,0,1,.17.5v.23a1.93,1.93,0,0,0,0,.24.32.32,0,0,0,0,.17l0,0h-.53v-.43a.78.78,0,0,0-.3-.73,1.33,1.33,0,0,0-.63-.11h-.45v1.27h-.56V91.4Z"/></svg>